<svg width="30" height="30" viewBox="0 0 30 30" fill="none" xmlns="http://www.w3.org/2000/svg">
<path d="M15 3C8.37273 3 3 8.37245 3 15C3 21.6275 8.37273 27 15 27C21.6273 27 27 21.6275 27 15C27 8.37245 21.6273 3 15 3ZM15 24.8182C9.57764 24.8182 5.18182 20.4224 5.18182 15C5.18182 9.57764 9.57764 5.18182 15 5.18182C20.4224 5.18182 24.8182 9.57764 24.8182 15C24.8182 20.4224 20.4224 24.8182 15 24.8182Z" fill="#CCCCCC"/>
<g clip-path="url(#clip0_202_14)">
<path d="M10.2 15H19.8" stroke="#CCCCCC" stroke-width="2" stroke-linecap="round"/>
<path d="M15 19.8V10.2" stroke="#CCCCCC" stroke-width="2" stroke-linecap="round"/>
</g>
<defs>
<clipPath id="clip0_202_14">
<rect x="9" y="9" width="12" height="12" rx="6" fill="white"/>
</clipPath>
</defs>
</svg>
