<svg width="20" height="20" viewBox="0 0 26 26" fill="none" xmlns="http://www.w3.org/2000/svg">
<path d="M17.7586 8.75862H11.2414V2.24138C11.2414 1.55862 10.6828 1 10 1C9.31724 1 8.75862 1.55862 8.75862 2.24138V8.75862H2.24138C1.55862 8.75862 1 9.31724 1 10C1 10.6828 1.55862 11.2414 2.24138 11.2414H8.75862V17.7586C8.75862 18.4414 9.31724 19 10 19C10.6828 19 11.2414 18.4414 11.2414 17.7586V11.2414H17.7586C18.4414 11.2414 19 10.6828 19 10C19 9.31724 18.4414 8.75862 17.7586 8.75862Z" fill="black"/>
</svg>
