<svg width="30" height="30" viewBox="0 0 30 31" fill="none" xmlns="http://www.w3.org/2000/svg">
    <path
        d="M15 0.5C6.71591 0.5 0 7.21557 0 15.5C0 23.7844 6.71591 30.5 15 30.5C23.2841 30.5 30 23.7844 30 15.5C30 7.21557 23.2841 0.5 15 0.5ZM15 27.7727C8.22205 27.7727 2.72727 22.278 2.72727 15.5C2.72727 8.72205 8.22205 3.22727 15 3.22727C21.778 3.22727 27.2727 8.72205 27.2727 15.5C27.2727 22.278 21.778 27.7727 15 27.7727ZM20.4545 14.1364H16.3636V10.0455C16.3636 9.29239 15.7531 8.68182 15 8.68182C14.2469 8.68182 13.6364 9.29239 13.6364 10.0455V14.1364H9.54545C8.79239 14.1364 8.18182 14.7469 8.18182 15.5C8.18182 16.2531 8.79239 16.8636 9.54545 16.8636H13.6364V20.9545C13.6364 21.7076 14.2469 22.3182 15 22.3182C15.7531 22.3182 16.3636 21.7076 16.3636 20.9545V16.8636H20.4545C21.2076 16.8636 21.8182 16.2531 21.8182 15.5C21.8182 14.7469 21.2076 14.1364 20.4545 14.1364Z"
        fill="#000" />
</svg>