<svg width="30" height="30" viewBox="0 0 30 30" fill="none" xmlns="http://www.w3.org/2000/svg">
<path d="M15 3C8.37273 3 3 8.37245 3 15C3 21.6275 8.37273 27 15 27C21.6273 27 27 21.6275 27 15C27 8.37245 21.6273 3 15 3ZM15 24.8182C9.57764 24.8182 5.18182 20.4224 5.18182 15C5.18182 9.57764 9.57764 5.18182 15 5.18182C20.4224 5.18182 24.8182 9.57764 24.8182 15C24.8182 20.4224 20.4224 24.8182 15 24.8182ZM19.3636 13.9091H16.0909V10.6364C16.0909 10.0339 15.6025 9.54545 15 9.54545C14.3975 9.54545 13.9091 10.0339 13.9091 10.6364V13.9091H10.6364C10.0339 13.9091 9.54545 14.3975 9.54545 15C9.54545 15.6025 10.0339 16.0909 10.6364 16.0909H13.9091V19.3636C13.9091 19.9661 14.3975 20.4545 15 20.4545C15.6025 20.4545 16.0909 19.9661 16.0909 19.3636V16.0909H19.3636C19.9661 16.0909 20.4545 15.6025 20.4545 15C20.4545 14.3975 19.9661 13.9091 19.3636 13.9091Z" fill="#CCCCCC"/>
</svg>
