<svg width="30" height="30" viewBox="0 0 30 30" fill="none" xmlns="http://www.w3.org/2000/svg">
<g clip-path="url(#clip0_203_28)">
<path d="M15 29C22.732 29 29 22.732 29 15C29 7.26801 22.732 1 15 1C7.26801 1 1 7.26801 1 15C1 22.732 7.26801 29 15 29Z" stroke="#296DD3" stroke-width="2"/>
<path d="M17.0176 14.2196C17.0176 14.8552 16.8134 15.9525 16.4047 17.5114C15.9961 19.0551 15.7917 20.0692 15.7917 20.5534C15.7917 21.0226 15.8598 21.2572 15.9961 21.2572C16.0868 21.2572 16.435 21.1135 17.0403 20.826L17.3127 20.6897L17.6987 21.4843C17.5625 21.6053 17.3809 21.7567 17.1539 21.9383C16.9268 22.1199 16.503 22.3696 15.8825 22.6875C15.2621 22.9902 14.6869 23.1414 14.1573 23.1414C13.6275 23.1414 13.2113 22.9826 12.9086 22.6648C12.6059 22.3318 12.4545 21.8929 12.4545 21.348C12.4545 20.7881 12.6438 19.8043 13.0222 18.3968C13.4005 16.9742 13.5896 16.0509 13.5896 15.6271C13.5896 14.9915 13.393 14.3936 12.9994 13.8337L12.7951 13.5613L12.8178 13.2661C13.6199 13.0391 14.9214 12.9256 16.7225 12.9256C16.9192 13.1527 17.0176 13.584 17.0176 14.2196ZM14.4296 10.4511C14.127 10.1484 13.9756 9.74734 13.9756 9.2479C13.9756 8.74846 14.1798 8.30955 14.5885 7.93119C15.0123 7.55282 15.4966 7.36364 16.0415 7.36364C16.5863 7.36364 17.0101 7.51499 17.3127 7.81768C17.6154 8.12037 17.7668 8.52145 17.7668 9.02088C17.7668 9.50519 17.5474 9.93652 17.1085 10.3149C16.6847 10.6933 16.2079 10.8824 15.6783 10.8824C15.1485 10.8824 14.7323 10.7387 14.4296 10.4511Z" fill="#296DD3"/>
</g>
<defs>
<clipPath id="clip0_203_28">
<rect width="30" height="30" fill="white"/>
</clipPath>
</defs>
</svg>
