<svg width="30" height="30" viewBox="0 0 30 30" fill="none" xmlns="http://www.w3.org/2000/svg">
<g opacity="0.9">
<path d="M16.2377 20.8201H13.7638V23.4172H16.2377V20.8201Z" fill="#4D4C78"/>
<path d="M11.3382 7.05415H2.51491C2.3452 7.05415 2.18245 7.11886 2.06244 7.23401C1.94243 7.34921 1.875 7.50542 1.875 7.6683V22.8013C1.87481 22.8821 1.89121 22.962 1.92328 23.0368C1.95535 23.1114 2.00245 23.1793 2.0619 23.2365C2.12134 23.2936 2.19195 23.339 2.26969 23.37C2.34743 23.4009 2.43074 23.4169 2.51491 23.4169L13.7638 23.4172L13.7638 21.9501C13.7638 21.9255 13.7623 21.9009 13.7593 21.8765L11.9736 7.59606C11.9552 7.44676 11.8803 7.30909 11.7632 7.20921C11.6461 7.10934 11.4949 7.05415 11.3382 7.05415Z" fill="#67BAEB"/>
<path d="M19.4252 7.54118L16.2512 21.8504C16.2417 21.8922 16.2367 21.9348 16.2362 21.9775V23.4169H27.4851C27.5692 23.4169 27.6526 23.4009 27.7303 23.37C27.808 23.339 27.8786 23.2936 27.9382 23.2365C27.9976 23.1793 28.0447 23.1114 28.0767 23.0368C28.1088 22.962 28.1252 22.8821 28.125 22.8013V7.6683C28.125 7.50542 28.0576 7.34921 27.9376 7.23401C27.8176 7.11886 27.6548 7.05415 27.4851 7.05415H20.0515C19.9047 7.05381 19.7622 7.10206 19.6481 7.19076C19.5341 7.27947 19.4553 7.40321 19.4252 7.54118Z" fill="#67BAEB"/>
<path d="M19.5321 7.05415L16.2362 21.9126V20.8201H13.7638L13.7638 21.9126L11.9059 7.05415H2.96511V23.0108L3.60955 22.7565C7.10151 21.3775 11.012 21.3381 14.5332 22.6466L15 22.8273L15.4668 22.6466C18.988 21.3381 22.8984 21.3775 26.3904 22.7565L27.0349 23.0108V7.05415H19.5321Z" fill="#46A1F8"/>
<path d="M15 22.3417C11.2945 20.8793 7.1374 20.8793 3.43187 22.3417V5.78539C7.13709 4.32154 11.2947 4.32154 15 5.78539V22.3417Z" fill="#C8C2E9"/>
<path d="M23.8745 24.7203L23.087 24.0903L22.3011 24.7203C22.0345 24.9342 21.6279 24.7521 21.6279 24.4183V20.1394H24.546V24.4183C24.546 24.7521 24.141 24.9342 23.8745 24.7203Z" fill="#F4C23F"/>
<path d="M21.6279 21.716C22.6139 21.769 23.5915 21.9181 24.546 22.1611V20.1394H21.6279V21.716Z" fill="#F4A93F"/>
<path d="M15 22.3417C18.7055 20.8793 22.8626 20.8793 26.5681 22.3417V5.78539C22.8629 4.32154 18.7052 4.32154 15 5.78539V22.3417Z" fill="#C8C2E9"/>
<path d="M4.3955 6.61338V5.4414C4.0718 5.54547 3.74957 5.6596 3.43187 5.78539V22.3417C7.16135 21.0007 11.2705 21.0007 15 22.3417V20.5888L14.8961 20.5556C8.62195 18.5889 4.3955 12.9472 4.3955 6.61338Z" fill="#B9B1E0"/>
<path d="M15.9637 6.61338V5.4414C15.6384 5.54547 15.3173 5.66012 15 5.78539V22.3417C18.7295 21.0007 22.8386 21.0007 26.5681 22.3417V20.5888L26.4642 20.5556C20.1885 18.5889 15.9637 12.9472 15.9637 6.61338Z" fill="#B9B1E0"/>
<path d="M5.33807 9.1524C5.26712 9.15269 5.19842 9.12891 5.14396 9.08528C5.0895 9.04169 5.05286 8.98105 5.04042 8.91401C5.02799 8.84697 5.04065 8.7779 5.0761 8.71896C5.1115 8.66 5.16751 8.61497 5.23418 8.59174C7.74591 7.70347 10.5053 7.70347 13.017 8.59174C13.0542 8.60482 13.0883 8.62479 13.1174 8.65057C13.1466 8.67629 13.1701 8.70732 13.1867 8.74181C13.2034 8.77629 13.2128 8.81358 13.2144 8.85159C13.216 8.88955 13.2098 8.92742 13.1963 8.96314C13.1826 8.99878 13.1618 9.03153 13.1348 9.05946C13.108 9.08743 13.0758 9.11004 13.0398 9.12599C13.0039 9.14195 12.9651 9.151 12.9255 9.15257C12.8859 9.15413 12.8464 9.14817 12.8093 9.13509C10.4318 8.29308 7.81937 8.29308 5.44195 9.13509C5.40857 9.14643 5.37347 9.15227 5.33807 9.1524Z" fill="#B9B1E0"/>
<path d="M5.33807 12.216C5.26712 12.2163 5.19842 12.1925 5.14396 12.1489C5.0895 12.1053 5.05286 12.0447 5.04042 11.9776C5.02799 11.9106 5.04065 11.8415 5.0761 11.7826C5.1115 11.7236 5.16751 11.6785 5.23418 11.6553C7.74556 10.7652 10.5056 10.7652 13.017 11.6553C13.0558 11.6671 13.0917 11.6863 13.1226 11.7119C13.1534 11.7374 13.1785 11.7686 13.1963 11.8036C13.2143 11.8387 13.2247 11.8769 13.2267 11.916C13.2288 11.9549 13.2226 11.994 13.2085 12.0306C13.1946 12.0673 13.1729 12.1008 13.145 12.1292C13.117 12.1576 13.0833 12.1803 13.0461 12.1959C13.0087 12.2114 12.9684 12.2196 12.9278 12.2198C12.8871 12.22 12.8468 12.2123 12.8093 12.1972C10.4318 11.3553 7.81937 11.3553 5.44195 12.1972C5.40888 12.2097 5.37361 12.2161 5.33807 12.216Z" fill="#B9B1E0"/>
<path d="M5.33807 15.2781C5.26787 15.2776 5.2001 15.2533 5.14652 15.2098C5.0929 15.1663 5.05678 15.1062 5.04448 15.0398C5.03214 14.9735 5.04435 14.9052 5.07901 14.8465C5.11362 14.788 5.16852 14.7428 5.23418 14.7189C7.74556 13.8287 10.5057 13.8287 13.0171 14.7189C13.0558 14.7307 13.0917 14.7499 13.1226 14.7754C13.1534 14.8009 13.1785 14.8322 13.1963 14.8672C13.2143 14.9023 13.2247 14.9406 13.2267 14.9795C13.2288 15.0185 13.2226 15.0576 13.2086 15.0941C13.1946 15.1309 13.1729 15.1644 13.145 15.1928C13.117 15.2212 13.0833 15.2439 13.0461 15.2594C13.0087 15.275 12.9684 15.2831 12.9278 15.2834C12.8871 15.2836 12.8468 15.2759 12.8093 15.2608C10.4318 14.4189 7.81937 14.4189 5.44195 15.2608C5.40857 15.2722 5.37347 15.278 5.33807 15.2781Z" fill="#B9B1E0"/>
<path d="M5.33807 18.3418C5.26712 18.342 5.19842 18.3183 5.14396 18.2746C5.0895 18.231 5.05286 18.1703 5.04042 18.1033C5.02799 18.0363 5.04065 17.9673 5.0761 17.9083C5.1115 17.8494 5.16751 17.8043 5.23418 17.7811C7.74591 16.8928 10.5053 16.8928 13.017 17.7811C13.0542 17.7941 13.0883 17.8141 13.1174 17.8399C13.1466 17.8656 13.1701 17.8966 13.1867 17.9311C13.2034 17.9656 13.2128 18.0029 13.2144 18.0409C13.216 18.0789 13.2098 18.1167 13.1963 18.1524C13.1826 18.1881 13.1618 18.2208 13.1348 18.2488C13.108 18.2767 13.0758 18.2993 13.0398 18.3153C13.0039 18.3313 12.9651 18.3403 12.9255 18.3419C12.8859 18.3434 12.8464 18.3375 12.8093 18.3244C10.4318 17.4824 7.81937 17.4824 5.44195 18.3244C5.40857 18.3357 5.37347 18.3416 5.33807 18.3418Z" fill="#B9B1E0"/>
<path d="M24.4812 9.1524C24.4459 9.15227 24.4107 9.14643 24.3773 9.13509C21.9999 8.29308 19.3875 8.29308 17.0101 9.13509C16.935 9.16154 16.852 9.15824 16.7795 9.12599C16.7069 9.09378 16.6507 9.03517 16.6231 8.96314C16.5955 8.89107 16.599 8.81147 16.6326 8.74181C16.6661 8.67215 16.7272 8.61815 16.8022 8.59174C19.314 7.70347 22.0733 7.70347 24.5852 8.59174C24.6517 8.61497 24.7078 8.66 24.7432 8.71896C24.7787 8.7779 24.7912 8.84697 24.7789 8.91401C24.7664 8.98105 24.7298 9.04169 24.6754 9.08528C24.6209 9.12891 24.5522 9.15269 24.4812 9.1524Z" fill="#B9B1E0"/>
<path d="M24.4812 12.216C24.4457 12.2161 24.4104 12.2097 24.3773 12.1972C21.9999 11.3553 19.3875 11.3553 17.0101 12.1972C16.9726 12.2123 16.9322 12.22 16.8915 12.2198C16.8508 12.2196 16.8106 12.2114 16.7733 12.1959C16.736 12.1803 16.7023 12.1576 16.6744 12.1292C16.6464 12.1008 16.6248 12.0673 16.6107 12.0306C16.5967 11.994 16.5905 11.9549 16.5926 11.916C16.5947 11.8769 16.605 11.8387 16.6229 11.8036C16.6408 11.7686 16.6659 11.7374 16.6968 11.7119C16.7276 11.6863 16.7634 11.6671 16.8023 11.6553C19.3136 10.7652 22.0737 10.7652 24.5852 11.6553C24.6518 11.6785 24.7078 11.7236 24.7433 11.7826C24.7787 11.8415 24.7913 11.9106 24.7789 11.9776C24.7665 12.0447 24.7298 12.1053 24.6754 12.1489C24.6209 12.1925 24.5522 12.2163 24.4812 12.216Z" fill="#B9B1E0"/>
<path d="M24.4812 15.2781C24.4459 15.278 24.4107 15.2722 24.3773 15.2608C21.9999 14.4189 19.3875 14.4189 17.0101 15.2608C16.9726 15.2759 16.9322 15.2836 16.8915 15.2834C16.8508 15.2831 16.8106 15.275 16.7733 15.2594C16.736 15.2439 16.7023 15.2212 16.6744 15.1928C16.6464 15.1644 16.6248 15.1309 16.6107 15.0941C16.5967 15.0576 16.5905 15.0185 16.5926 14.9795C16.5947 14.9406 16.605 14.9023 16.6229 14.8672C16.6408 14.8322 16.6659 14.8009 16.6968 14.7754C16.7276 14.7499 16.7634 14.7307 16.8023 14.7189C19.3136 13.8287 22.0737 13.8287 24.5852 14.7189C24.6508 14.7428 24.7057 14.788 24.7403 14.8465C24.7749 14.9052 24.7871 14.9735 24.7748 15.0398C24.7626 15.1062 24.7265 15.1663 24.6728 15.2098C24.6192 15.2533 24.5514 15.2776 24.4812 15.2781Z" fill="#B9B1E0"/>
<path d="M24.4812 18.3417C24.4459 18.3416 24.4107 18.3357 24.3773 18.3244C21.9999 17.4824 19.3875 17.4824 17.0101 18.3244C16.935 18.3508 16.852 18.3475 16.7795 18.3153C16.7069 18.283 16.6507 18.2245 16.6231 18.1524C16.5955 18.0803 16.599 18.0008 16.6326 17.9311C16.6661 17.8615 16.7272 17.8075 16.8022 17.7811C19.314 16.8928 22.0733 16.8928 24.5852 17.7811C24.6517 17.8043 24.7078 17.8494 24.7432 17.9083C24.7787 17.9673 24.7912 18.0363 24.7789 18.1033C24.7664 18.1703 24.7298 18.231 24.6754 18.2746C24.6209 18.3183 24.5522 18.342 24.4812 18.3417Z" fill="#B9B1E0"/>
<path d="M24.6469 8.90677C24.6114 8.9066 24.5764 8.90076 24.5429 8.88942C22.1656 8.04746 19.5531 8.04746 17.1758 8.88942C17.1007 8.91587 17.0177 8.91261 16.9451 8.88037C16.8726 8.84811 16.8163 8.7895 16.7888 8.71743C16.7612 8.6454 16.7646 8.56579 16.7982 8.49613C16.8318 8.42647 16.8928 8.37252 16.9679 8.34607C19.4797 7.45777 22.239 7.45777 24.7508 8.34607C24.8174 8.3693 24.8734 8.41433 24.9088 8.47333C24.9443 8.53228 24.9569 8.60134 24.9445 8.66834C24.9321 8.73533 24.8954 8.79602 24.841 8.83965C24.7866 8.88324 24.7178 8.90702 24.6469 8.90677Z" fill="#DFDAFD"/>
<path d="M24.6469 11.9704C24.6113 11.9705 24.5761 11.9641 24.543 11.9515C22.1656 11.1096 19.5531 11.1096 17.1758 11.9515C17.1382 11.9667 17.0978 11.9744 17.0572 11.9741C17.0165 11.9739 16.9762 11.9658 16.9389 11.9502C16.9016 11.9346 16.868 11.9119 16.8399 11.8836C16.8121 11.8552 16.7903 11.8216 16.7764 11.785C16.7623 11.7483 16.7561 11.7093 16.7582 11.6702C16.7603 11.6313 16.7707 11.593 16.7886 11.558C16.8065 11.523 16.8316 11.4917 16.8623 11.4662C16.8932 11.4406 16.9291 11.4214 16.9679 11.4096C19.4793 10.5195 22.2394 10.5195 24.7508 11.4096C24.8174 11.4329 24.8734 11.478 24.9088 11.5369C24.9443 11.5959 24.9569 11.6649 24.9445 11.7319C24.9321 11.799 24.8954 11.8596 24.841 11.9032C24.7866 11.9469 24.7178 11.9706 24.6469 11.9704Z" fill="#DFDAFD"/>
<path d="M24.6469 15.0325C24.6114 15.0324 24.5764 15.0265 24.543 15.0151C22.1656 14.1732 19.5531 14.1732 17.1758 15.0151C17.1382 15.0303 17.0978 15.038 17.0572 15.0377C17.0165 15.0375 16.9762 15.0294 16.9389 15.0137C16.9016 14.9982 16.868 14.9755 16.8399 14.9471C16.8121 14.9187 16.7903 14.8851 16.7764 14.8485C16.7623 14.8119 16.7561 14.7729 16.7582 14.7339C16.7603 14.6948 16.7707 14.6567 16.7886 14.6216C16.8065 14.5865 16.8316 14.5553 16.8623 14.5297C16.8932 14.5043 16.9291 14.485 16.9679 14.4733C19.4793 13.583 22.2394 13.583 24.7507 14.4733C24.8165 14.4971 24.8713 14.5423 24.9059 14.6009C24.9406 14.6594 24.9528 14.7279 24.9405 14.7942C24.9281 14.8605 24.892 14.9206 24.8385 14.9642C24.7849 15.0077 24.7171 15.0319 24.6469 15.0325Z" fill="#DFDAFD"/>
<path d="M24.6469 18.0961C24.6114 18.096 24.5764 18.09 24.543 18.0787C22.1656 17.2367 19.5531 17.2367 17.1758 18.0787C17.1385 18.0919 17.0991 18.0977 17.0595 18.0962C17.0199 18.0946 16.981 18.0856 16.9451 18.0696C16.9091 18.0537 16.8769 18.0311 16.8501 18.0031C16.8233 17.9752 16.8024 17.9425 16.7888 17.9068C16.7752 17.871 16.7689 17.8332 16.7706 17.7952C16.7722 17.7572 16.7815 17.7199 16.7982 17.6854C16.8148 17.6509 16.8384 17.6199 16.8675 17.5942C16.8967 17.5684 16.9307 17.5485 16.9679 17.5353C19.4797 16.6471 22.239 16.6471 24.7508 17.5353C24.8174 17.5585 24.8734 17.6036 24.9088 17.6626C24.9443 17.7216 24.9569 17.7906 24.9445 17.8576C24.9321 17.9246 24.8954 17.9854 24.841 18.0289C24.7866 18.0726 24.7178 18.0963 24.6469 18.0961Z" fill="#DFDAFD"/>
<path d="M5.50369 8.90677C5.43279 8.90702 5.36404 8.88324 5.30958 8.83965C5.25512 8.79602 5.21848 8.73533 5.20604 8.66834C5.19366 8.60134 5.20627 8.53228 5.24172 8.47333C5.27712 8.41433 5.33313 8.3693 5.39979 8.34607C7.91153 7.45777 10.6709 7.45777 13.1827 8.34607C13.2198 8.35915 13.2539 8.37916 13.2831 8.4049C13.3122 8.43066 13.3358 8.46165 13.3523 8.49613C13.369 8.53063 13.3784 8.56791 13.38 8.60592C13.3817 8.64388 13.3754 8.6818 13.3618 8.71743C13.3482 8.7531 13.3273 8.78586 13.3005 8.81384C13.2737 8.84176 13.2414 8.86437 13.2054 8.88037C13.1695 8.89632 13.1307 8.90533 13.0911 8.9069C13.0515 8.90847 13.012 8.9025 12.9748 8.88942C10.5974 8.04746 7.98499 8.04746 5.60757 8.88942C5.5742 8.90076 5.5391 8.9066 5.50369 8.90677Z" fill="#DFDAFD"/>
<path d="M5.50369 11.9704C5.43279 11.9706 5.36404 11.9469 5.30958 11.9032C5.25512 11.8596 5.21848 11.799 5.20604 11.7319C5.19366 11.6649 5.20627 11.5959 5.24172 11.5369C5.27712 11.478 5.33313 11.4329 5.39979 11.4096C7.91118 10.5195 10.6713 10.5195 13.1827 11.4096C13.2215 11.4214 13.2573 11.4406 13.2882 11.4662C13.319 11.4917 13.3442 11.523 13.362 11.558C13.3799 11.593 13.3903 11.6313 13.3924 11.6702C13.3944 11.7093 13.3883 11.7483 13.3742 11.785C13.3601 11.8216 13.3385 11.8552 13.3106 11.8836C13.2826 11.9119 13.249 11.9346 13.2117 11.9502C13.1743 11.9658 13.1341 11.9739 13.0934 11.9741C13.0527 11.9744 13.0124 11.9667 12.9748 11.9515C10.5974 11.1096 7.98499 11.1096 5.60757 11.9515C5.5745 11.9641 5.53927 11.9705 5.50369 11.9704Z" fill="#DFDAFD"/>
<path d="M5.50369 15.0325C5.43349 15.0319 5.36572 15.0077 5.31214 14.9642C5.25852 14.9206 5.2224 14.8605 5.2101 14.7942C5.19775 14.7279 5.20997 14.6594 5.24463 14.6009C5.27924 14.5423 5.33414 14.4971 5.39979 14.4733C7.91118 13.583 10.6713 13.583 13.1827 14.4733C13.2215 14.485 13.2573 14.5043 13.2882 14.5297C13.319 14.5553 13.3442 14.5865 13.362 14.6216C13.3799 14.6567 13.3903 14.6948 13.3924 14.7339C13.3944 14.7729 13.3883 14.8119 13.3742 14.8485C13.3601 14.8851 13.3385 14.9187 13.3106 14.9471C13.2826 14.9755 13.249 14.9982 13.2117 15.0137C13.1743 15.0294 13.1341 15.0375 13.0934 15.0377C13.0527 15.038 13.0124 15.0303 12.9748 15.0151C10.5974 14.1732 7.98499 14.1732 5.60757 15.0151C5.5742 15.0265 5.5391 15.0324 5.50369 15.0325Z" fill="#DFDAFD"/>
<path d="M5.50369 18.0961C5.43279 18.0963 5.36404 18.0726 5.30958 18.0289C5.25512 17.9854 5.21848 17.9246 5.20604 17.8576C5.19366 17.7906 5.20627 17.7216 5.24172 17.6626C5.27712 17.6036 5.33313 17.5585 5.39979 17.5353C7.91153 16.6471 10.6709 16.6471 13.1827 17.5353C13.2198 17.5485 13.2539 17.5684 13.2831 17.5942C13.3122 17.6199 13.3358 17.6509 13.3523 17.6854C13.369 17.7199 13.3784 17.7572 13.38 17.7952C13.3817 17.8332 13.3754 17.871 13.3618 17.9068C13.3482 17.9425 13.3273 17.9752 13.3005 18.0031C13.2737 18.0311 13.2414 18.0537 13.2054 18.0696C13.1695 18.0856 13.1307 18.0946 13.0911 18.0962C13.0515 18.0977 13.012 18.0919 12.9748 18.0787C10.5974 17.2367 7.98499 17.2367 5.60757 18.0787C5.5742 18.09 5.5391 18.096 5.50369 18.0961Z" fill="#DFDAFD"/>
<path d="M24.5716 9.00791C24.5362 9.00779 24.5011 9.0019 24.4677 8.99056C22.0903 8.1486 19.4778 8.1486 17.1005 8.99056C17.0633 9.00369 17.0238 9.00961 16.9842 9.00804C16.9447 9.00648 16.9058 8.99747 16.8698 8.9815C16.8339 8.96555 16.8016 8.94296 16.7748 8.91498C16.7479 8.88704 16.7271 8.8543 16.7135 8.81857C16.6998 8.78294 16.6936 8.74503 16.6953 8.70702C16.6969 8.66905 16.7063 8.63177 16.7229 8.59728C16.7395 8.56283 16.7631 8.53181 16.7922 8.50608C16.8214 8.48031 16.8555 8.46029 16.8926 8.44721C19.4044 7.55895 22.1637 7.55895 24.6755 8.44721C24.7421 8.47045 24.7981 8.51547 24.8336 8.57443C24.869 8.63342 24.8816 8.70249 24.8693 8.76949C24.8568 8.83652 24.8201 8.89716 24.7657 8.9408C24.7113 8.98443 24.6426 9.00817 24.5716 9.00791Z" fill="#4D4C78"/>
<path d="M24.5716 12.0715C24.5361 12.0716 24.5008 12.0652 24.4677 12.0527C22.0903 11.2108 19.4778 11.2108 17.1004 12.0527C17.0629 12.0679 17.0226 12.0756 16.9819 12.0753C16.9412 12.0751 16.9009 12.0669 16.8637 12.0513C16.8263 12.0358 16.7927 12.0131 16.7648 11.9847C16.7367 11.9563 16.7151 11.9228 16.7011 11.8861C16.687 11.8494 16.6808 11.8104 16.6829 11.7714C16.6851 11.7324 16.6954 11.6942 16.7133 11.6592C16.7312 11.624 16.7562 11.5929 16.7872 11.5673C16.8179 11.5418 16.8538 11.5226 16.8926 11.5108C19.404 10.6206 22.1641 10.6206 24.6755 11.5108C24.7421 11.534 24.7981 11.5791 24.8336 11.638C24.869 11.697 24.8816 11.7661 24.8693 11.8331C24.8568 11.9001 24.8201 11.9608 24.7657 12.0044C24.7113 12.048 24.6426 12.0717 24.5716 12.0715Z" fill="#4D4C78"/>
<path d="M24.5716 15.1337C24.5362 15.1335 24.5011 15.1276 24.4677 15.1163C22.0903 14.2743 19.4778 14.2743 17.1004 15.1163C17.0629 15.1315 17.0226 15.1392 16.9819 15.1389C16.9412 15.1387 16.9009 15.1305 16.8637 15.1149C16.8263 15.0994 16.7927 15.0767 16.7648 15.0483C16.7367 15.0199 16.7151 14.9864 16.7011 14.9497C16.687 14.913 16.6808 14.8741 16.6829 14.835C16.6851 14.796 16.6954 14.7578 16.7133 14.7228C16.7312 14.6876 16.7562 14.6564 16.7872 14.6309C16.8179 14.6054 16.8538 14.5862 16.8926 14.5744C19.404 13.6842 22.1641 13.6842 24.6755 14.5744C24.7411 14.5982 24.796 14.6434 24.8306 14.7021C24.8653 14.7606 24.8775 14.829 24.8652 14.8954C24.8528 14.9617 24.8167 15.0218 24.7631 15.0653C24.7095 15.1088 24.6418 15.133 24.5716 15.1337Z" fill="#4D4C78"/>
<path d="M24.5716 18.1972C24.5362 18.1971 24.5011 18.1912 24.4677 18.1799C22.0903 17.3379 19.4778 17.3379 17.1005 18.1799C17.0633 18.1929 17.0238 18.1989 16.9842 18.1973C16.9447 18.1958 16.9058 18.1868 16.8698 18.1708C16.8339 18.1549 16.8016 18.1322 16.7748 18.1043C16.7479 18.0763 16.7271 18.0436 16.7135 18.0079C16.6998 17.9722 16.6936 17.9343 16.6953 17.8964C16.6969 17.8584 16.7063 17.8211 16.7229 17.7866C16.7395 17.7521 16.7631 17.7211 16.7922 17.6953C16.8214 17.6696 16.8555 17.6497 16.8926 17.6365C19.4044 16.7482 22.1637 16.7482 24.6755 17.6365C24.7421 17.6597 24.7981 17.7048 24.8336 17.7637C24.869 17.8227 24.8816 17.8918 24.8693 17.9589C24.8568 18.0258 24.8201 18.0865 24.7657 18.1301C24.7113 18.1736 24.6426 18.1974 24.5716 18.1972Z" fill="#4D4C78"/>
<path d="M26.5666 7.23334C26.5666 6.90772 26.2916 6.64373 25.9523 6.64373C25.613 6.64373 25.338 6.90772 25.338 7.23334V13.9315C25.338 14.2571 25.613 14.521 25.9523 14.521C26.2916 14.521 26.5666 14.2571 26.5666 13.9315V7.23334Z" fill="#DFDAFD"/>
<path d="M15 7.88651C15 7.65505 14.8045 7.46745 14.5634 7.46745C14.3222 7.46745 14.1267 7.65505 14.1267 7.88651V12.1457C14.1267 12.3771 14.3222 12.5647 14.5634 12.5647C14.8045 12.5647 15 12.3771 15 12.1457V7.88651Z" fill="#DFDAFD"/>
<path d="M5.42842 9.00791C5.35747 9.00817 5.28872 8.98443 5.23431 8.9408C5.17986 8.89716 5.14316 8.83652 5.13073 8.76949C5.11834 8.70249 5.131 8.63342 5.1664 8.57443C5.20186 8.51547 5.25786 8.47045 5.32453 8.44721C7.83626 7.55895 10.5956 7.55895 13.1074 8.44721C13.1445 8.46029 13.1786 8.48031 13.2078 8.50608C13.2369 8.53181 13.2605 8.56283 13.2771 8.59728C13.2937 8.63177 13.3031 8.66905 13.3047 8.70702C13.3063 8.74503 13.3002 8.78294 13.2865 8.81857C13.2728 8.8543 13.252 8.88704 13.2252 8.91498C13.1984 8.94296 13.1661 8.96555 13.1302 8.9815C13.0943 8.99747 13.0553 9.00648 13.0158 9.00804C12.9762 9.00961 12.9368 9.00369 12.8995 8.99056C10.5221 8.1486 7.90968 8.1486 5.5323 8.99056C5.49893 9.0019 5.46378 9.00779 5.42842 9.00791Z" fill="#4D4C78"/>
<path d="M5.42842 12.0715C5.35747 12.0717 5.28872 12.048 5.23431 12.0044C5.17986 11.9608 5.14316 11.9001 5.13073 11.8331C5.11834 11.7661 5.131 11.697 5.1664 11.638C5.20186 11.5791 5.25786 11.534 5.32453 11.5108C7.83591 10.6206 10.596 10.6206 13.1074 11.5108C13.1462 11.5226 13.1821 11.5418 13.2128 11.5673C13.2438 11.5929 13.2688 11.624 13.2867 11.6592C13.3046 11.6942 13.3149 11.7324 13.3171 11.7714C13.3192 11.8104 13.313 11.8494 13.2989 11.8861C13.2848 11.9228 13.2632 11.9563 13.2353 11.9847C13.2073 12.0131 13.1737 12.0358 13.1363 12.0513C13.099 12.0669 13.0588 12.0751 13.0181 12.0753C12.9774 12.0756 12.9371 12.0679 12.8996 12.0527C10.5221 11.2108 7.90968 11.2108 5.5323 12.0527C5.49919 12.0652 5.46396 12.0716 5.42842 12.0715Z" fill="#4D4C78"/>
<path d="M5.42842 15.1337C5.35817 15.133 5.29045 15.1088 5.23683 15.0653C5.18325 15.0218 5.14714 14.9617 5.13483 14.8954C5.12249 14.829 5.1347 14.7606 5.16936 14.7021C5.20397 14.6434 5.25887 14.5982 5.32453 14.5744C7.83591 13.6842 10.596 13.6842 13.1074 14.5744C13.1462 14.5862 13.1821 14.6054 13.2128 14.6309C13.2438 14.6564 13.2688 14.6876 13.2867 14.7228C13.3047 14.7578 13.315 14.796 13.3171 14.835C13.3192 14.8741 13.313 14.913 13.2989 14.9497C13.2848 14.9864 13.2632 15.0199 13.2353 15.0483C13.2074 15.0767 13.1737 15.0994 13.1363 15.1149C13.099 15.1305 13.0588 15.1387 13.0181 15.1389C12.9774 15.1392 12.9371 15.1315 12.8996 15.1163C10.5221 14.2743 7.90972 14.2743 5.5323 15.1163C5.49893 15.1276 5.46378 15.1335 5.42842 15.1337Z" fill="#4D4C78"/>
<path d="M5.42842 18.1972C5.35747 18.1974 5.28872 18.1736 5.23431 18.1301C5.17986 18.0865 5.14316 18.0258 5.13073 17.9589C5.11834 17.8918 5.131 17.8227 5.1664 17.7637C5.20186 17.7048 5.25786 17.6597 5.32453 17.6365C7.83626 16.7482 10.5956 16.7482 13.1074 17.6365C13.1445 17.6497 13.1786 17.6696 13.2078 17.6953C13.2369 17.7211 13.2605 17.7521 13.2771 17.7866C13.2937 17.8211 13.3031 17.8584 13.3047 17.8964C13.3063 17.9343 13.3002 17.9722 13.2865 18.0079C13.2728 18.0436 13.252 18.0763 13.2252 18.1043C13.1984 18.1322 13.1661 18.1549 13.1302 18.1708C13.0943 18.1868 13.0553 18.1958 13.0158 18.1973C12.9762 18.1989 12.9368 18.1929 12.8995 18.1799C10.5221 17.3379 7.90968 17.3379 5.5323 18.1799C5.49893 18.1912 5.46378 18.1971 5.42842 18.1972Z" fill="#4D4C78"/>
<path d="M24.546 23.1813C24.546 23.0233 24.4129 22.8952 24.2486 22.8952C24.0844 22.8952 23.9513 23.0233 23.9513 23.1813V24.1319C23.9513 24.2899 24.0844 24.4181 24.2486 24.4181C24.4129 24.4181 24.546 24.2899 24.546 24.1319V23.1813Z" fill="#FAD564"/>
<path d="M28.125 9.18275C28.125 9.03031 27.9963 8.90677 27.8374 8.90677C27.6786 8.90677 27.5498 9.03031 27.5498 9.18275V15.1302C27.5498 15.2826 27.6786 15.4062 27.8374 15.4062C27.9963 15.4062 28.125 15.2826 28.125 15.1302V9.18275Z" fill="#83D0FB"/>
</g>
</svg>
