<svg width="30" height="30" viewBox="0 0 30 30" fill="none" xmlns="http://www.w3.org/2000/svg">
<g opacity="0.9">
<path d="M16.2377 20.8201H13.7638V23.4172H16.2377V20.8201Z" fill="#4D4C78"/>
<path d="M11.3382 7.05415H2.51491C2.3452 7.05415 2.18244 7.11886 2.06243 7.23401C1.94242 7.34921 1.875 7.50542 1.875 7.6683V22.8013C1.87481 22.882 1.89121 22.962 1.92328 23.0367C1.95535 23.1114 2.00245 23.1793 2.0619 23.2366C2.12134 23.2936 2.19195 23.339 2.26969 23.37C2.34743 23.4009 2.43074 23.4169 2.51491 23.4169L13.7638 23.4172V21.9501C13.7638 21.9255 13.7623 21.9008 13.7593 21.8765L11.9736 7.59607C11.9552 7.44676 11.8803 7.30909 11.7632 7.20922C11.6461 7.10933 11.4949 7.05415 11.3382 7.05415Z" fill="#67BAEB"/>
<path d="M19.4252 7.54117L16.2512 21.8504C16.2417 21.8922 16.2367 21.9348 16.2362 21.9775V23.4169H27.4851C27.5692 23.4169 27.6526 23.4009 27.7303 23.37C27.808 23.339 27.8786 23.2936 27.9382 23.2366C27.9976 23.1793 28.0447 23.1114 28.0767 23.0367C28.1088 22.962 28.1252 22.882 28.125 22.8013V7.6683C28.125 7.50542 28.0576 7.34921 27.9376 7.23401C27.8176 7.11886 27.6548 7.05415 27.4851 7.05415H20.0515C19.9047 7.05382 19.7622 7.10206 19.6481 7.19077C19.5341 7.27947 19.4553 7.40321 19.4252 7.54117Z" fill="#67BAEB"/>
<path d="M19.5321 7.05415L16.2362 21.9126V20.8201H13.7638V21.9126L11.9059 7.05415H2.96511V23.0108L3.60955 22.7565C7.10151 21.3774 11.012 21.3382 14.5332 22.6466L15 22.8273L15.4668 22.6466C18.988 21.3382 22.8984 21.3774 26.3904 22.7565L27.0349 23.0108V7.05415H19.5321Z" fill="#46A1F8"/>
<path d="M15 22.3417C11.2945 20.8792 7.1374 20.8792 3.43187 22.3417V5.78539C7.13709 4.32154 11.2947 4.32154 15 5.78539V22.3417Z" fill="#C8C2E9"/>
<path d="M23.8745 24.7203L23.087 24.0903L22.3011 24.7203C22.0345 24.9342 21.6279 24.7522 21.6279 24.4183V20.1394H24.546V24.4183C24.546 24.7522 24.141 24.9342 23.8745 24.7203Z" fill="#F4C23F"/>
<path d="M21.6279 21.716C22.6139 21.7689 23.5915 21.9181 24.546 22.1612V20.1394H21.6279V21.716Z" fill="#F4A93F"/>
<path d="M15 22.3417C18.7055 20.8792 22.8626 20.8792 26.5681 22.3417V5.78539C22.8629 4.32154 18.7052 4.32154 15 5.78539V22.3417Z" fill="#C8C2E9"/>
<path d="M4.3955 6.61339V5.4414C4.0718 5.54547 3.74957 5.6596 3.43187 5.78539V22.3417C7.16135 21.0007 11.2705 21.0007 15 22.3417V20.5888L14.8961 20.5556C8.62194 18.5888 4.3955 12.9472 4.3955 6.61339Z" fill="#B9B1E0"/>
<path d="M15.9637 6.61339V5.4414C15.6384 5.54547 15.3173 5.66012 15 5.78539V22.3417C18.7295 21.0007 22.8386 21.0007 26.5681 22.3417V20.5888L26.4642 20.5556C20.1885 18.5888 15.9637 12.9472 15.9637 6.61339Z" fill="#B9B1E0"/>
<path d="M26.5666 7.23334C26.5666 6.90772 26.2916 6.64372 25.9523 6.64372C25.613 6.64372 25.338 6.90772 25.338 7.23334V13.9314C25.338 14.2571 25.613 14.521 25.9523 14.521C26.2916 14.521 26.5666 14.2571 26.5666 13.9314V7.23334Z" fill="#DFDAFD"/>
<path d="M15 7.88651C15 7.65505 14.8045 7.46745 14.5634 7.46745C14.3222 7.46745 14.1267 7.65505 14.1267 7.88651V12.1457C14.1267 12.3771 14.3222 12.5648 14.5634 12.5648C14.8045 12.5648 15 12.3771 15 12.1457V7.88651Z" fill="#DFDAFD"/>
<path d="M24.546 23.1813C24.546 23.0233 24.4129 22.8953 24.2486 22.8953C24.0844 22.8953 23.9513 23.0233 23.9513 23.1813V24.1319C23.9513 24.2899 24.0844 24.418 24.2486 24.418C24.4129 24.418 24.546 24.2899 24.546 24.1319V23.1813Z" fill="#FAD564"/>
<path d="M28.125 9.18275C28.125 9.03031 27.9963 8.90676 27.8374 8.90676C27.6786 8.90676 27.5498 9.03031 27.5498 9.18275V15.1302C27.5498 15.2826 27.6786 15.4062 27.8374 15.4062C27.9963 15.4062 28.125 15.2826 28.125 15.1302V9.18275Z" fill="#83D0FB"/>
</g>
</svg>
