<svg width="16" height="16" viewBox="0 0 16 16" fill="none" xmlns="http://www.w3.org/2000/svg">
<path d="M9.58529 7.38685C9.58529 7.88626 9.4248 8.74838 9.10372 9.97322C8.78264 11.1862 8.62205 11.983 8.62205 12.3634C8.62205 12.7321 8.67558 12.9163 8.78264 12.9163C8.85391 12.9163 9.12751 12.8034 9.60313 12.5775L9.81715 12.4705L10.1204 13.0948C10.0134 13.1898 9.87068 13.3088 9.69235 13.4515C9.51391 13.5942 9.18094 13.7904 8.69343 14.0402C8.20591 14.278 7.75398 14.3968 7.33784 14.3968C6.9216 14.3968 6.59457 14.272 6.35677 14.0223C6.11896 13.7607 6 13.4159 6 12.9877C6 12.5478 6.1487 11.7748 6.44598 10.6689C6.74327 9.55113 6.89186 8.8257 6.89186 8.49273C6.89186 7.99332 6.73732 7.52355 6.42814 7.08362L6.26755 6.8696L6.28539 6.63763C6.91565 6.4593 7.93826 6.37009 9.35343 6.37009C9.50797 6.54852 9.58529 6.88744 9.58529 7.38685ZM7.55186 4.42587C7.31405 4.18804 7.1951 3.87291 7.1951 3.48049C7.1951 3.08808 7.35558 2.74322 7.67666 2.44593C8.00963 2.14864 8.39019 2 8.81833 2C9.24637 2 9.57934 2.11891 9.81715 2.35674C10.055 2.59457 10.1739 2.9097 10.1739 3.30211C10.1739 3.68265 10.0015 4.02155 9.65666 4.31884C9.32369 4.61613 8.94908 4.76477 8.53294 4.76477C8.1167 4.76477 7.78967 4.6518 7.55186 4.42587Z" fill="#FF0000"/>
</svg>
