<svg width="200" height="161" viewBox="0 0 200 161" fill="none" xmlns="http://www.w3.org/2000/svg">
<path d="M109.413 128.169H90.5991V148.748H109.413V128.169Z" fill="#4D4D4D"/>
<path d="M72.1517 19.0885H5.04977C3.75913 19.0885 2.52131 19.6013 1.60863 20.5138C0.695954 21.4266 0.18321 22.6643 0.18321 23.9551V143.868C0.181734 144.508 0.306484 145.142 0.550381 145.734C0.794278 146.326 1.15249 146.863 1.60457 147.317C2.05662 147.769 2.59364 148.129 3.18482 148.375C3.776 148.62 4.40967 148.746 5.04977 148.746H90.5991V137.124C90.5991 136.928 90.5873 136.733 90.5643 136.539L76.984 23.3826C76.8437 22.1995 76.2742 21.1086 75.3836 20.3172C74.4934 19.5258 73.3432 19.0885 72.1517 19.0885Z" fill="#676767"/>
<path d="M133.654 22.9477L109.516 136.333C109.443 136.665 109.405 137.002 109.401 137.341V148.746H194.95C195.591 148.746 196.224 148.62 196.815 148.375C197.407 148.129 197.943 147.769 198.396 147.317C198.848 146.863 199.206 146.326 199.45 145.734C199.693 145.142 199.818 144.508 199.817 143.868V23.9551C199.817 22.6643 199.304 21.4266 198.392 20.5138C197.479 19.6013 196.241 19.0885 194.95 19.0885H138.417C137.301 19.0858 136.217 19.4681 135.35 20.171C134.482 20.8739 133.883 21.8545 133.654 22.9477Z" fill="#676767"/>
<path d="M134.467 19.0885L109.401 136.826V128.169H90.599V136.826L76.469 19.0885H8.47351V145.529L13.3746 143.513C39.9313 132.585 69.6704 132.274 96.4502 142.643L100 144.075L103.55 142.643C130.33 132.274 160.069 132.585 186.625 143.513L191.527 145.529V19.0885H134.467Z" fill="#464646"/>
<path d="M100 140.227C71.8193 128.638 40.2042 128.638 12.0233 140.227V9.03489C40.2019 -2.56455 71.8211 -2.56455 100 9.03489V140.227Z" fill="#C8C8C8"/>
<path d="M167.491 159.075L161.502 154.082L155.525 159.075C153.498 160.769 150.407 159.327 150.407 156.682V122.776H172.598V156.682C172.598 159.327 169.518 160.769 167.491 159.075Z" fill="#8D8D8D"/>
<path d="M100 140.227C128.181 128.638 159.796 128.638 187.977 140.227V9.03489C159.798 -2.56455 128.178 -2.56455 100 9.03489V140.227Z" fill="#C8C8C8"/>
<path d="M19.3518 15.5959V6.3092C16.89 7.1338 14.4394 8.03822 12.0233 9.03489V140.227C40.3863 129.6 71.6371 129.6 100 140.227V126.337L99.2099 126.073C51.4944 110.489 19.3518 65.7845 19.3518 15.5959Z" fill="#B9B9B9"/>
<path d="M107.329 15.5959V6.3092C104.855 7.1338 102.413 8.04226 100 9.03489V140.227C128.363 129.6 159.614 129.6 187.977 140.227V126.337L187.186 126.073C139.46 110.489 107.329 65.7845 107.329 15.5959Z" fill="#B9B9B9"/>
</svg>
