<svg width="300" height="241" viewBox="0 0 300 241" fill="none" xmlns="http://www.w3.org/2000/svg">
<path d="M164.119 192.254H135.899V223.123H164.119V192.254Z" fill="#4D4D4D"/>
<path d="M108.227 28.6328H7.57464C5.63868 28.6328 3.78194 29.4019 2.41293 30.7706C1.04392 32.1399 0.2748 33.9965 0.2748 35.9326V215.802C0.272586 216.762 0.45971 217.713 0.825557 218.601C1.1914 219.489 1.72873 220.295 2.40685 220.975C3.08491 221.654 3.89044 222.194 4.77722 222.562C5.66399 222.93 6.61449 223.119 7.57464 223.119H135.899V205.686C135.899 205.392 135.881 205.1 135.846 204.809L115.476 35.0739C115.265 33.2993 114.411 31.663 113.075 30.4758C111.74 29.2887 110.015 28.6328 108.227 28.6328Z" fill="#676767"/>
<path d="M200.481 34.4215L164.274 204.5C164.165 204.997 164.107 205.504 164.101 206.011V223.119H292.425C293.386 223.119 294.336 222.93 295.223 222.562C296.11 222.194 296.915 221.654 297.594 220.975C298.272 220.295 298.809 219.489 299.175 218.601C299.54 217.713 299.727 216.762 299.725 215.802V35.9326C299.725 33.9965 298.956 32.1398 297.587 30.7706C296.218 29.4019 294.362 28.6328 292.425 28.6328H207.626C205.951 28.6287 204.326 29.2022 203.025 30.2565C201.723 31.3108 200.825 32.7817 200.481 34.4215Z" fill="#676767"/>
<path d="M201.701 28.6328L164.101 205.239V192.254H135.899V205.239L114.703 28.6328H12.7103V218.293L20.0619 215.27C59.8969 198.878 104.506 198.411 144.675 213.964L150 216.112L155.325 213.964C195.494 198.411 240.103 198.878 279.938 215.27L287.29 218.293V28.6328H201.701Z" fill="#464646"/>
<path d="M150 210.34C107.729 192.958 60.3063 192.958 18.035 210.34V13.5523C60.3028 -3.84683 107.732 -3.84683 150 13.5523V210.34Z" fill="#C8C8C8"/>
<path d="M251.237 238.612L242.254 231.123L233.288 238.612C230.247 241.154 225.61 238.99 225.61 235.023V184.163H258.897V235.023C258.897 238.99 254.277 241.154 251.237 238.612Z" fill="#F4F4F4"/>
<path d="M150 210.34C192.271 192.958 239.694 192.958 281.965 210.34V13.5523C239.697 -3.84683 192.268 -3.84683 150 13.5523V210.34Z" fill="#C8C8C8"/>
<path d="M29.0276 23.3939V9.46381C25.335 10.7007 21.6591 12.0573 18.035 13.5523V210.34C60.5795 194.4 107.456 194.4 150 210.34V189.506L148.815 189.11C77.2415 165.733 29.0276 98.6768 29.0276 23.3939Z" fill="#B9B9B9"/>
<path d="M160.993 23.3939V9.46381C157.282 10.7007 153.619 12.0634 150 13.5523V210.34C192.544 194.4 239.42 194.4 281.965 210.34V189.506L280.78 189.11C209.189 165.733 160.993 98.6768 160.993 23.3939Z" fill="#B9B9B9"/>
</svg>
