<svg width="30" height="30" viewBox="0 0 30 30" fill="none" xmlns="http://www.w3.org/2000/svg">
<path d="M15 26C21.0751 26 26 21.0751 26 15C26 8.92487 21.0751 4 15 4C8.92487 4 4 8.92487 4 15C4 21.0751 8.92487 26 15 26Z" stroke="white" stroke-width="2"/>
<path d="M16.5853 14.3869C16.5853 14.8863 16.4248 15.7484 16.1037 16.9732C15.7826 18.1862 15.6221 18.983 15.6221 19.3634C15.6221 19.7321 15.6756 19.9163 15.7826 19.9163C15.8539 19.9163 16.1275 19.8034 16.6031 19.5775L16.8171 19.4705L17.1204 20.0948C17.0134 20.1898 16.8707 20.3088 16.6923 20.4515C16.5139 20.5942 16.1809 20.7904 15.6934 21.0402C15.2059 21.278 14.754 21.3968 14.3378 21.3968C13.9216 21.3968 13.5946 21.272 13.3568 21.0223C13.119 20.7607 13 20.4159 13 19.9877C13 19.5478 13.1487 18.7748 13.446 17.6689C13.7433 16.5511 13.8919 15.8257 13.8919 15.4927C13.8919 14.9933 13.7373 14.5235 13.4281 14.0836L13.2675 13.8696L13.2854 13.6376C13.9157 13.4593 14.9383 13.3701 16.3534 13.3701C16.508 13.5485 16.5853 13.8874 16.5853 14.3869ZM14.5519 11.4259C14.3141 11.188 14.1951 10.8729 14.1951 10.4805C14.1951 10.0881 14.3556 9.74322 14.6767 9.44593C15.0096 9.14864 15.3902 9 15.8183 9C16.2464 9 16.5793 9.11891 16.8171 9.35674C17.055 9.59457 17.1739 9.9097 17.1739 10.3021C17.1739 10.6827 17.0015 11.0216 16.6567 11.3188C16.3237 11.6161 15.9491 11.7648 15.5329 11.7648C15.1167 11.7648 14.7897 11.6518 14.5519 11.4259Z" fill="white"/>
</svg>
