<svg width="30" height="30" viewBox="0 0 30 30" fill="none" xmlns="http://www.w3.org/2000/svg">
<path d="M23 14C22.7348 14 22.4804 14.1054 22.2929 14.2929C22.1054 14.4804 22 14.7348 22 15V21C22 21.2652 21.8946 21.5196 21.7071 21.7071C21.5196 21.8946 21.2652 22 21 22H9C8.73478 22 8.48043 21.8946 8.29289 21.7071C8.10536 21.5196 8 21.2652 8 21V9C8 8.73478 8.10536 8.48043 8.29289 8.29289C8.48043 8.10536 8.73478 8 9 8H15C15.2652 8 15.5196 7.89464 15.7071 7.70711C15.8946 7.51957 16 7.26522 16 7C16 6.73478 15.8946 6.48043 15.7071 6.29289C15.5196 6.10536 15.2652 6 15 6H9C8.20435 6 7.44129 6.31607 6.87868 6.87868C6.31607 7.44129 6 8.20435 6 9V21C6 21.7956 6.31607 22.5587 6.87868 23.1213C7.44129 23.6839 8.20435 24 9 24H21C21.7956 24 22.5587 23.6839 23.1213 23.1213C23.6839 22.5587 24 21.7956 24 21V15C24 14.7348 23.8946 14.4804 23.7071 14.2929C23.5196 14.1054 23.2652 14 23 14Z" fill="white"/>
<path d="M19 8H20.58L14.29 14.28C14.1962 14.373 14.1218 14.4836 14.0711 14.6054C14.0203 14.7273 13.9942 14.858 13.9942 14.99C13.9942 15.122 14.0203 15.2527 14.0711 15.3746C14.1218 15.4964 14.1962 15.607 14.29 15.7C14.3829 15.7937 14.4935 15.8681 14.6154 15.9189C14.7373 15.9697 14.868 15.9958 15 15.9958C15.132 15.9958 15.2627 15.9697 15.3845 15.9189C15.5064 15.8681 15.617 15.7937 15.71 15.7L22 9.42V11C22 11.2652 22.1053 11.5196 22.2929 11.7071C22.4804 11.8946 22.7348 12 23 12C23.2652 12 23.5195 11.8946 23.7071 11.7071C23.8946 11.5196 24 11.2652 24 11V7C24 6.73478 23.8946 6.48043 23.7071 6.29289C23.5195 6.10536 23.2652 6 23 6H19C18.7348 6 18.4804 6.10536 18.2929 6.29289C18.1053 6.48043 18 6.73478 18 7C18 7.26522 18.1053 7.51957 18.2929 7.70711C18.4804 7.89464 18.7348 8 19 8V8Z" fill="white"/>
</svg>
