<svg width="25" height="25" viewBox="0 0 25 25" fill="none" xmlns="http://www.w3.org/2000/svg">
<path d="M19.9661 3.82769H15.7246V2.41385C15.7246 1.6327 15.0919 1 14.3107 1H10.0692C9.2881 1 8.6554 1.6327 8.6554 2.41385V3.82769H4.41385C3.6327 3.82769 3 4.46039 3 5.24154V6.65539C3 7.4358 3.6327 8.0685 4.41243 8.0692H19.9668C20.7473 8.0685 21.38 7.4358 21.38 6.65539V5.24151C21.3799 4.46039 20.7472 3.82769 19.9661 3.82769ZM14.3107 3.82769H10.0692V3.12075C10.0692 2.73054 10.3859 2.41382 10.7761 2.41382H13.6038C13.994 2.41382 14.3107 2.73051 14.3107 3.12075V3.82769Z" fill="white"/>
<path d="M4.41382 20.7938C4.41382 22.3554 5.6799 23.6215 7.2415 23.6215H17.1384C18.7 23.6215 19.9661 22.3554 19.9661 20.7938V9.483H4.41382V20.7938Z" fill="white"/>
</svg>
