<svg width="18" height="18" viewBox="0 0 18 18" fill="none" xmlns="http://www.w3.org/2000/svg">
<path d="M13.5 3.75H10.875V2.875C10.875 2.39157 10.4834 2 9.99995 2H7.37497C6.89157 2 6.5 2.39157 6.5 2.875V3.75H3.87499C3.39155 3.75 2.99998 4.14157 2.99998 4.62501V5.50001C2.99998 5.98299 3.39155 6.37455 3.87411 6.37499H13.5004C13.9834 6.37455 14.375 5.98299 14.375 5.50001V4.62499C14.3749 4.14157 13.9834 3.75 13.5 3.75ZM9.99995 3.75H7.37497V3.31249C7.37497 3.071 7.57097 2.87499 7.81246 2.87499H9.56247C9.80395 2.87499 9.99995 3.07098 9.99995 3.31249V3.75Z" fill="white"/>
<path d="M3.87495 14.25C3.87495 15.2164 4.65851 16 5.62495 16H11.7499C12.7164 16 13.5 15.2164 13.5 14.25V7.24996H3.87495V14.25Z" fill="white"/>
</svg>
