<svg width="85" height="123" viewBox="0 0 85 123" fill="none" xmlns="http://www.w3.org/2000/svg">
<line x1="53.0656" y1="73.4888" x2="81.0798" y2="117.632" stroke="white" stroke-width="7" stroke-linecap="round"/>
<circle cx="39.1747" cy="39.1747" r="36.1747" stroke="white" stroke-width="6"/>
<path d="M41.706 48.7102H35.9592C35.9799 46.7328 36.1549 45.1159 36.4845 43.8594C36.8346 42.5823 37.4011 41.4185 38.1838 40.3681C38.9666 39.3175 40.0067 38.1229 41.3043 36.7839C42.2519 35.8158 43.117 34.9095 43.8998 34.0651C44.7031 33.1999 45.3518 32.2731 45.8462 31.2844C46.3405 30.275 46.5878 29.07 46.5878 27.6694C46.5878 26.2482 46.3302 25.0225 45.8153 23.9927C45.321 22.9627 44.5795 22.1697 43.5908 21.6137C42.6227 21.0575 41.4177 20.7794 39.9758 20.7794C38.7812 20.7794 37.6482 20.9958 36.5772 21.4283C35.5061 21.8608 34.641 22.5302 33.9818 23.4365C33.3227 24.3222 32.9828 25.486 32.9622 26.928H27.2463C27.2876 24.6003 27.8642 22.6024 28.9766 20.9339C30.1094 19.2655 31.6337 17.9884 33.5493 17.1027C35.4648 16.2169 37.6071 15.7742 39.9758 15.7742C42.5917 15.7742 44.8163 16.2479 46.6495 17.1954C48.5033 18.1429 49.9142 19.5023 50.8824 21.2737C51.8505 23.0246 52.3346 25.105 52.3346 27.515C52.3346 29.3687 51.9535 31.0784 51.1913 32.6437C50.4499 34.1886 49.492 35.6408 48.3179 37.0002C47.1438 38.3597 45.8977 39.6573 44.5795 40.8933C43.4465 41.9437 42.6844 43.1281 42.293 44.4464C41.9016 45.7647 41.706 47.1858 41.706 48.7102ZM35.7121 58.5045C35.7121 57.5776 36.0005 56.7949 36.5772 56.1563C37.1538 55.5178 37.9881 55.1986 39.0798 55.1986C40.1921 55.1986 41.0367 55.5178 41.6134 56.1563C42.19 56.7949 42.4784 57.5776 42.4784 58.5045C42.4784 59.3902 42.19 60.1524 41.6134 60.7908C41.0367 61.4294 40.1921 61.7487 39.0798 61.7487C37.9881 61.7487 37.1538 61.4294 36.5772 60.7908C36.0005 60.1524 35.7121 59.3902 35.7121 58.5045Z" fill="white"/>
</svg>
