<svg width="30" height="30" viewBox="0 0 30 30" fill="none" xmlns="http://www.w3.org/2000/svg">
<path d="M24.9 13.6998H7.75551L13.5778 7.87755C14.0073 7.448 14.0073 6.75171 13.5778 6.32216C13.1482 5.89261 12.4517 5.89261 12.0221 6.32216L4.32216 14.0221C3.89261 14.4517 3.89261 15.1482 4.32216 15.5775L12.0221 23.2775C12.2369 23.4922 12.5185 23.5998 12.8001 23.5998C13.0814 23.5998 13.363 23.4922 13.5778 23.2775C14.0073 22.8479 14.0073 22.1513 13.5778 21.7221L7.75551 15.8998L24.9 15.8998C25.5072 15.8998 26 15.4073 26 14.7998C26 14.1923 25.5075 13.6998 24.9 13.6998Z" fill="white"/>
</svg>
