<svg width="30" height="30" viewBox="0 0 30 30" fill="none" xmlns="http://www.w3.org/2000/svg">
<rect width="6.74297" height="1.55607" rx="0.778035" transform="matrix(-0.713747 0.700403 -0.713747 -0.700403 14.9234 16.2772)" fill="white"/>
<path fill-rule="evenodd" clip-rule="evenodd" d="M16.6983 15.9614C15.1561 15.9614 13.906 14.7346 13.906 13.2213C13.906 11.708 15.1561 10.4812 16.6983 10.4812C18.2404 10.4812 19.4906 11.708 19.4906 13.2213C19.4906 14.7346 18.2404 15.9614 16.6983 15.9614ZM16.6983 8.99999C14.3225 8.99999 12.3966 10.8899 12.3966 13.2213C12.3966 15.5527 14.3225 17.4426 16.6983 17.4426C19.0741 17.4426 21 15.5527 21 13.2213C21 10.8899 19.0741 8.99999 16.6983 8.99999Z" fill="white"/>
<path d="M26 15C26 21.0751 21.0751 26 15 26C8.92487 26 4 21.0751 4 15C4 8.92487 8.92487 4 15 4C21.0751 4 26 8.92487 26 15Z" stroke="white" stroke-width="2"/>
</svg>
