<svg width="30" height="30" viewBox="0 0 30 30" fill="none" xmlns="http://www.w3.org/2000/svg">
<path d="M22.9661 6.82769H18.7246V5.41385C18.7246 4.6327 18.0919 4 17.3107 4H13.0692C12.2881 4 11.6554 4.6327 11.6554 5.41385V6.82769H7.41385C6.6327 6.82769 6 7.46039 6 8.24154V9.65539C6 10.4358 6.6327 11.0685 7.41243 11.0692H22.9668C23.7473 11.0685 24.38 10.4358 24.38 9.65539V8.24151C24.3799 7.46039 23.7472 6.82769 22.9661 6.82769ZM17.3107 6.82769H13.0692V6.12075C13.0692 5.73054 13.3859 5.41382 13.7761 5.41382H16.6038C16.994 5.41382 17.3107 5.73051 17.3107 6.12075V6.82769ZM7.41382 23.7938C7.41382 25.3554 8.6799 26.6215 10.2415 26.6215H20.1384C21.7 26.6215 22.9661 25.3554 22.9661 23.7938V12.483H7.41382V23.7938ZM18.0177 14.6038C18.0177 14.2136 18.3344 13.8969 18.7246 13.8969C19.1148 13.8969 19.4315 14.2136 19.4315 14.6038V23.0869C19.4315 23.4771 19.1148 23.7938 18.7246 23.7938C18.3344 23.7938 18.0177 23.4771 18.0177 23.0869V14.6038ZM14.483 14.6038C14.483 14.2136 14.7997 13.8969 15.19 13.8969C15.5802 13.8969 15.8969 14.2136 15.8969 14.6038V23.0869C15.8969 23.4771 15.5802 23.7938 15.19 23.7938C14.7998 23.7938 14.483 23.4771 14.483 23.0869V14.6038ZM10.9484 14.6038C10.9484 14.2136 11.2651 13.8969 11.6554 13.8969C12.0456 13.8969 12.3623 14.2136 12.3623 14.6038V23.0869C12.3623 23.4771 12.0456 23.7938 11.6554 23.7938C11.2651 23.7938 10.9484 23.4771 10.9484 23.0869V14.6038Z" fill="black"/>
</svg>
