<svg width="30" height="30" viewBox="0 0 30 30" fill="none" xmlns="http://www.w3.org/2000/svg">
<path d="M29.5651 26.4385C29.2856 26.9154 28.8804 27.3114 28.3909 27.5859C27.9015 27.8603 27.3457 28.0032 26.7805 27.9999H3.21439C2.64986 27.9999 2.09526 27.8556 1.60643 27.5816C1.1176 27.3075 0.711776 26.9131 0.429773 26.4385C0.147769 25.9637 -0.000459607 25.4253 1.07053e-06 24.8774C0.00046173 24.3294 0.149596 23.7912 0.432396 23.3169L12.2154 3.55709C12.4977 3.08356 12.9035 2.69045 13.3917 2.41716C13.88 2.14386 14.4338 2 14.9974 2C15.561 2 16.1148 2.14386 16.6032 2.41716C17.0913 2.69045 17.497 3.08356 17.7795 3.55709L29.5624 23.3168C29.8485 23.79 29.9996 24.3286 30 24.8772C30.0005 25.426 29.8504 25.9648 29.5651 26.4385ZM27.7077 24.3588L15.9247 4.59908C15.8306 4.44126 15.6954 4.31021 15.5326 4.21912C15.3699 4.12802 15.1853 4.08008 14.9974 4.08008C14.8095 4.08008 14.625 4.12802 14.4622 4.21912C14.2995 4.31021 14.1642 4.44126 14.07 4.59908L2.28706 24.3588C2.19282 24.5169 2.14311 24.6963 2.14298 24.879C2.14284 25.0616 2.19226 25.2412 2.28625 25.3993C2.38025 25.5576 2.5155 25.689 2.67844 25.7804C2.84136 25.8718 3.02622 25.9199 3.21439 25.9199H26.7805C26.9686 25.9199 27.1535 25.8718 27.3163 25.7804C27.4794 25.689 27.6146 25.5576 27.7085 25.3993C27.8025 25.2412 27.852 25.0616 27.8518 24.879C27.8517 24.6963 27.802 24.5169 27.7077 24.3588Z" fill="#FF0000"/>
<path d="M14.997 20.7207C14.6792 20.7207 14.3685 20.8122 14.1041 20.9836C13.8398 21.1551 13.6338 21.3987 13.5121 21.6838C13.3905 21.9689 13.3586 22.2825 13.4208 22.5852C13.4827 22.8878 13.6357 23.1658 13.8606 23.3839C14.0853 23.6021 14.3717 23.7506 14.6835 23.8108C14.9953 23.871 15.3183 23.8402 15.612 23.7222C15.9058 23.604 16.1568 23.404 16.3334 23.1476C16.5099 22.8909 16.6042 22.5893 16.6042 22.2808C16.6037 21.8671 16.4343 21.4706 16.1329 21.1782C15.8317 20.8857 15.4232 20.7212 14.997 20.7207Z" fill="#FF0000"/>
<path d="M13.9255 17.6006V11.3604C13.9255 11.0845 14.0385 10.82 14.2394 10.6249C14.4403 10.4299 14.7128 10.3203 14.997 10.3203C15.2812 10.3203 15.5538 10.4299 15.7547 10.6249C15.9556 10.82 16.0684 11.0845 16.0684 11.3604V17.6006C16.0684 17.8765 15.9556 18.1411 15.7547 18.3361C15.5538 18.5311 15.2812 18.6406 14.997 18.6406C14.7128 18.6406 14.4403 18.5311 14.2394 18.3361C14.0385 18.1411 13.9255 17.8765 13.9255 17.6006Z" fill="#FF0000"/>
</svg>
