<svg width="34" height="30" viewBox="0 0 34 30" fill="none" xmlns="http://www.w3.org/2000/svg">
<path d="M33.1152 28.1972C32.8022 28.7474 32.3484 29.2044 31.8002 29.5211C31.2521 29.8377 30.6296 30.0026 29.9966 29.9988H3.60352C2.97127 29.9988 2.35015 29.8323 1.80268 29.5161C1.25521 29.1998 0.8007 28.7448 0.484868 28.1972C0.169035 27.6494 0.0030253 27.0282 0.00354124 26.396C0.00405716 25.7637 0.171081 25.1427 0.487806 24.5955L13.6843 1.79657C14.0005 1.25022 14.4549 0.796644 15.0017 0.481316C15.5486 0.165989 16.1688 0 16.8 0C17.4312 0 18.0515 0.165989 18.5984 0.481316C19.1451 0.796644 19.5995 1.25022 19.9158 1.79657L33.1122 24.5954C33.4326 25.1414 33.6018 25.7628 33.6023 26.3958C33.6029 27.029 33.4347 27.6507 33.1152 28.1972ZM31.035 25.7976L17.8386 2.99883C17.7332 2.81673 17.5817 2.66553 17.3994 2.56043C17.2172 2.45532 17.0105 2.4 16.8 2.4C16.5896 2.4 16.3829 2.45532 16.2006 2.56043C16.0184 2.66553 15.8669 2.81673 15.7614 2.99883L2.56495 25.7976C2.45941 25.98 2.40374 26.187 2.40359 26.3978C2.40343 26.6085 2.45878 26.8157 2.56405 26.9982C2.66932 27.1808 2.8208 27.3324 3.00328 27.4379C3.18575 27.5433 3.39278 27.5988 3.60352 27.5988H29.9966C30.2073 27.5988 30.4143 27.5433 30.5967 27.4379C30.7793 27.3324 30.9308 27.1808 31.0359 26.9982C31.1412 26.8157 31.1966 26.6085 31.1964 26.3978C31.1963 26.187 31.1406 25.98 31.035 25.7976Z" fill="#FF0000"/>
<path d="M16.8 21.6C16.4441 21.6 16.0961 21.7056 15.8 21.9033C15.504 22.1012 15.2733 22.3823 15.137 22.7112C15.0008 23.0402 14.9651 23.402 15.0347 23.7512C15.1041 24.1004 15.2754 24.4211 15.5273 24.6728C15.779 24.9246 16.0997 25.0959 16.4489 25.1654C16.7981 25.2348 17.1599 25.1993 17.4888 25.0631C17.8178 24.9267 18.0989 24.696 18.2967 24.4001C18.4944 24.104 18.6 23.756 18.6 23.4C18.5994 22.9227 18.4097 22.4652 18.0722 22.1279C17.7348 21.7904 17.2773 21.6006 16.8 21.6Z" fill="#FF0000"/>
<path d="M15.6 18V10.8C15.6 10.4817 15.7265 10.1765 15.9515 9.95147C16.1765 9.72644 16.4817 9.60001 16.8 9.60001C17.1183 9.60001 17.4236 9.72644 17.6486 9.95147C17.8736 10.1765 18 10.4817 18 10.8V18C18 18.3183 17.8736 18.6236 17.6486 18.8486C17.4236 19.0736 17.1183 19.2 16.8 19.2C16.4817 19.2 16.1765 19.0736 15.9515 18.8486C15.7265 18.6236 15.6 18.3183 15.6 18Z" fill="#FF0000"/>
</svg>
